<svg width="131" height="131" viewBox="0 0 131 131" fill="none" xmlns="http://www.w3.org/2000/svg">
<g filter="url(#filter0_g_419_509)">
<path d="M65.5 12L70.6561 16.4432L76.6233 13.1691L80.7429 18.5872L87.2604 16.6253L90.1635 22.7816L96.9465 22.2176L98.5062 28.8429L105.258 29.7015L105.406 36.5063L111.832 38.75L110.562 45.4369L116.382 48.9676L113.749 55.2443L118.707 59.9077L114.827 65.5L118.707 71.0923L113.749 75.7557L116.382 82.0324L110.562 85.5631L111.832 92.25L105.406 94.4937L105.258 101.298L98.5062 102.157L96.9465 108.782L90.1635 108.218L87.2604 114.375L80.7429 112.413L76.6233 117.831L70.6561 114.557L65.5 119L60.3439 114.557L54.3767 117.831L50.2571 112.413L43.7396 114.375L40.8365 108.218L34.0535 108.782L32.4938 102.157L25.7418 101.298L25.5936 94.4937L19.1676 92.25L20.4375 85.5631L14.6185 82.0324L17.2509 75.7557L12.2931 71.0923L16.173 65.5L12.2931 59.9077L17.2509 55.2443L14.6185 48.9676L20.4375 45.4369L19.1676 38.75L25.5936 36.5063L25.7418 29.7015L32.4938 28.8429L34.0535 22.2176L40.8365 22.7816L43.7396 16.6253L50.2571 18.5872L54.3767 13.1691L60.3439 16.4432L65.5 12Z" fill="url(#paint0_linear_419_509)"/>
</g>
<path d="M39.5898 72.4336C38.793 72.4336 38.1953 71.9414 38.1953 71.1328C38.1953 70.3242 38.793 69.832 39.5898 69.832H44.8867C45.6953 69.832 46.2812 70.3242 46.2812 71.1328C46.2812 71.9414 45.6953 72.4336 44.8867 72.4336H39.5898ZM50.1484 78C49.2109 78 48.7188 77.4844 48.7188 76.7227C48.7188 76.1367 48.918 75.7852 49.5625 75.1758L54.7305 70.0547C56.8867 67.9219 57.4258 67.0664 57.4258 65.7773C57.4258 64.2656 56.2656 63.1758 54.6367 63.1758C53.1133 63.1758 52.0469 63.9492 51.4492 65.4727C51.1445 66.082 50.793 66.3984 50.1016 66.3984C49.2812 66.3984 48.7891 65.8945 48.7891 65.1445C48.7891 64.9219 48.8242 64.7109 48.8828 64.5117C49.3398 62.6836 51.3672 60.75 54.6602 60.75C58.0469 60.75 60.3789 62.7539 60.3789 65.5898C60.3789 67.5703 59.4297 68.9062 56.6289 71.6484L52.75 75.4688V75.5273H59.5C60.2969 75.5273 60.7891 76.0195 60.7891 76.7695C60.7891 77.5078 60.2969 78 59.5 78H50.1484ZM69.2734 78.3398C65.1016 78.3398 62.6172 74.9531 62.6172 69.5273C62.6172 64.125 65.125 60.75 69.2734 60.75C73.4102 60.75 75.9062 64.1016 75.9062 69.5156C75.9062 74.9297 73.4336 78.3398 69.2734 78.3398ZM69.2734 75.8672C71.5586 75.8672 72.8594 73.5352 72.8594 69.5273C72.8594 65.5664 71.5352 63.2227 69.2734 63.2227C67 63.2227 65.6641 65.5781 65.6641 69.5156C65.6641 73.5234 66.9766 75.8672 69.2734 75.8672ZM81.7891 78.2344C81.2266 78.2344 80.7578 77.8828 80.7578 77.332C80.7578 77.0391 80.8398 76.8281 80.9922 76.6055L86.207 69.0352L91.3516 61.5C91.6797 61.0078 91.9375 60.8438 92.4062 60.8438C92.9453 60.8438 93.3789 61.2305 93.3789 61.7578C93.3789 62.0156 93.3086 62.2266 93.1445 62.4609L88.0938 69.8203L82.7734 77.6133C82.4688 78.082 82.2109 78.2344 81.7891 78.2344ZM81.25 69.7852C79 69.7852 77.6172 68.0859 77.6172 65.3086C77.6172 62.5312 79.0234 60.8789 81.25 60.8789C83.4883 60.8789 84.8945 62.5195 84.8945 65.3086C84.8945 68.0742 83.5 69.7852 81.25 69.7852ZM81.25 68.0977C82.1523 68.0977 82.6914 67.1719 82.6914 65.3086C82.6914 63.457 82.1406 62.5664 81.25 62.5664C80.3594 62.5664 79.8086 63.4688 79.8086 65.3203C79.8086 67.1719 80.3594 68.0977 81.25 68.0977ZM92.9102 78.2109C90.6602 78.2109 89.2773 76.5234 89.2773 73.7461C89.2773 70.957 90.6836 69.3047 92.9102 69.3047C95.1367 69.3047 96.543 70.9453 96.543 73.7344C96.543 76.5117 95.1602 78.2109 92.9102 78.2109ZM92.9102 76.5234C93.8008 76.5234 94.3516 75.5977 94.3516 73.7461C94.3516 71.8945 93.8008 70.9922 92.9102 70.9922C92.0195 70.9922 91.4688 71.8945 91.4688 73.7461C91.4688 75.5977 92.0195 76.5234 92.9102 76.5234Z" fill="white"/>
<defs>
<filter id="filter0_g_419_509" x="0.392969" y="0.1" width="130.214" height="130.8" filterUnits="userSpaceOnUse" color-interpolation-filters="sRGB">
<feFlood flood-opacity="0" result="BackgroundImageFix"/>
<feBlend mode="normal" in="SourceGraphic" in2="BackgroundImageFix" result="shape"/>
<feTurbulence type="fractalNoise" baseFrequency="0.25 0.25" numOctaves="3" seed="4552" />
<feDisplacementMap in="shape" scale="23.799999237060547" xChannelSelector="R" yChannelSelector="G" result="displacedImage" width="100%" height="100%" />
<feMerge result="effect1_texture_419_509">
<feMergeNode in="displacedImage"/>
</feMerge>
</filter>
<linearGradient id="paint0_linear_419_509" x1="65.5" y1="12" x2="65.5" y2="119" gradientUnits="userSpaceOnUse">
<stop stop-color="#FF4545"/>
<stop offset="1" stop-color="#BD0000"/>
</linearGradient>
</defs>
</svg>
